<svg width="32" height="32" viewBox="0 0 32 32" fill="none" xmlns="http://www.w3.org/2000/svg">
<rect width="32" height="32" rx="4" fill="#0D0E10"/>
<g clip-path="url(#clip0_574_923)">
<path d="M22.9965 23V22.9994H23V17.8649C23 15.3531 22.4592 13.4182 19.5227 13.4182C18.1111 13.4182 17.1637 14.1928 16.777 14.9272H16.7362V13.6527H13.9519V22.9994H16.8511V18.3713C16.8511 17.1527 17.0821 15.9743 18.5912 15.9743C20.0781 15.9743 20.1002 17.365 20.1002 18.4494V23H22.9965ZM9.231 13.6533H12.1337V23H9.231V13.6533ZM10.6812 9C9.75308 9 9 9.75308 9 10.6812C9 11.6092 9.75308 12.3781 10.6812 12.3781C11.6092 12.3781 12.3623 11.6092 12.3623 10.6812C12.3617 9.75308 11.6087 9 10.6812 9V9Z" fill="white"/>
</g>
<defs>
<clipPath id="clip0_574_923">
<rect width="14" height="14" fill="white" transform="translate(9 9)"/>
</clipPath>
</defs>
</svg>
