<svg width="32" height="32" viewBox="0 0 32 32" fill="none" xmlns="http://www.w3.org/2000/svg">
<rect width="32" height="32" rx="4" fill="#0D0E10"/>
<path d="M23.985 11.1549C23.7933 10.4383 23.2283 9.87325 22.5116 9.68159C21.2116 9.33325 16 9.33325 16 9.33325C16 9.33325 10.7883 9.33325 9.48829 9.68159C8.77163 9.87325 8.20663 10.4383 8.01496 11.1549C7.66663 12.4549 7.66663 15.9999 7.66663 15.9999C7.66663 15.9999 7.66663 19.5449 8.01496 20.8449C8.20663 21.5616 8.77163 22.1266 9.48829 22.3183C10.7883 22.6666 16 22.6666 16 22.6666C16 22.6666 21.2116 22.6666 22.5116 22.3183C23.2291 22.1266 23.7933 21.5616 23.985 20.8449C24.3333 19.5449 24.3333 15.9999 24.3333 15.9999C24.3333 15.9999 24.3333 12.4549 23.985 11.1549ZM14.3333 18.1649V13.8349C14.3333 13.5141 14.6808 13.3141 14.9583 13.4741L18.7083 15.6391C18.9858 15.7991 18.9858 16.2008 18.7083 16.3608L14.9583 18.5258C14.6808 18.6866 14.3333 18.4858 14.3333 18.1649Z" fill="white"/>
</svg>
